  <svg width="21" height="21" viewBox="0 0 21 21" fill="none" xmlns="http://www.w3.org/2000/svg">
    <path
      d="M16.5 3C16.8978 3 17.2794 3.15804 17.5607 3.43934C17.842 3.72064 18 4.10218 18 4.5C18 4.89782 17.842 5.27936 17.5607 5.56066C17.2794 5.84196 16.8978 6 16.5 6C16.1022 6 15.7206 5.84196 15.4393 5.56066C15.158 5.27936 15 4.89782 15 4.5C15 4.10218 15.158 3.72064 15.4393 3.43934C15.7206 3.15804 16.1022 3 16.5 3Z"
      stroke="#9EA7E0" stroke-width="1.5" stroke-linecap="round" stroke-linejoin="round" />
    <path
      d="M1.7352 9.68659C0.782341 10.7506 0.762391 12.3562 1.6364 13.4867C3.33407 15.6906 5.30932 17.6659 7.51313 19.3636C8.64364 20.2376 10.2491 20.2177 11.3132 19.2648C14.1894 16.692 16.892 13.9315 19.4034 11.0014C19.657 10.71 19.8131 10.3466 19.8499 9.9621C20.0057 8.25584 20.3278 3.34039 18.993 2.00655C17.6582 0.672707 12.7439 0.993817 11.0377 1.15057C10.6531 1.18741 10.2898 1.34353 9.99835 1.59709C7.06841 4.10821 4.30799 6.81063 1.7352 9.68659Z"
      stroke="#9EA7E0" stroke-width="1.5" stroke-linecap="round" stroke-linejoin="round" />
    <path
      d="M12.788 10.367C12.81 9.96502 12.922 9.23202 12.312 8.67402M12.312 8.67402C12.0793 8.47179 11.8082 8.31841 11.515 8.22302C10.258 7.78002 8.71502 9.26202 9.80702 10.619C10.394 11.349 10.847 11.573 10.803 12.401C10.773 12.983 10.201 13.592 9.44702 13.824C8.79202 14.026 8.06902 13.759 7.61202 13.248C7.05302 12.624 7.11002 12.036 7.10502 11.78M12.312 8.67402L13 7.98602M7.66002 13.326L7.00702 13.979"
      stroke="#9EA7E0" stroke-width="1.5" stroke-linecap="round" stroke-linejoin="round" />
  </svg>
